# xmcd CD database file
#
# Track frame offsets:
#	150
#	20921
#	30105
#	41799
#	57331
#	66985
#	75901
#	91870
#	108244
#	122056
#	139127
#	145494
#	156891
#	167703
#	180707
#	197793
#	208967
#	218571
#	224888
#	237232
#	254163
#	262867
#	282474
#	291350
#
# Disc length: 3930 seconds
#
# Revision: 0
# Processed by: cddbd v1.5.1PL0 Copyright (c) Steve Scherf et al.
# Submitted via: CDex 1.51
#
DISCID=7a0f5818
DTITLE=Jan Johansson - Folkvisor
DYEAR=1994
DGENRE=Jazz
TTITLE0=Visa från Utanmyra
TTITLE1=Gånglek från Älvdalen
TTITLE2=Polska från Medelpad
TTITLE3=Visa från Rättvik
TTITLE4=Brudmarsch efter Larshöga Jonke
TTITLE5=Vallåt från Jämtland
TTITLE6=Emigrantvisa
TTITLE7=Berg-Kirstis polska
TTITLE8=Leksands skänklåt
TTITLE9=Gammal bröllopsmarsch
TTITLE10=Visa från Järna
TTITLE11=Polska efter Höök Olle
TTITLE12=Nära hemmet
TTITLE13=På ängen stod en björk
TTITLE14=Stepp, min stepp
TTITLE15=Bandura
TTITLE16=Längs floden
TTITLE17=Det går en kosack
TTITLE18=Mellan branta stränder
TTITLE19=Pråmdragarnas sång på Volga
TTITLE20=Jag broderade till gryningen
TTITLE21=Kvällar i Moskvas förstäder
TTITLE22=Entonigt klingar den lilla klockan
TTITLE23=Ströva omkring
EXTD=YEAR: 1994
EXTT0=
EXTT1=
EXTT2=
EXTT3=
EXTT4=
EXTT5=
EXTT6=
EXTT7=
EXTT8=
EXTT9=
EXTT10=
EXTT11=
EXTT12=
EXTT13=
EXTT14=
EXTT15=
EXTT16=
EXTT17=
EXTT18=
EXTT19=
EXTT20=
EXTT21=
EXTT22=
EXTT23=
PLAYORDER=
